<svg xmlns="http://www.w3.org/2000/svg" viewBox="0 0 160 160" role="img" aria-labelledby="title desc">
  <title id="title">Van Lester Acepcion profile picture</title>
  <desc id="desc">Mock admin profile picture for the VLACE dashboard.</desc>
  <defs>
    <linearGradient id="bg" x1="0" x2="1" y1="0" y2="1">
      <stop offset="0" stop-color="#eaf4ff"/>
      <stop offset="1" stop-color="#e8fff4"/>
    </linearGradient>
    <linearGradient id="shirt" x1="0" x2="1" y1="0" y2="1">
      <stop offset="0" stop-color="#1769e8"/>
      <stop offset="1" stop-color="#0d3b6e"/>
    </linearGradient>
  </defs>
  <rect width="160" height="160" rx="36" fill="url(#bg)"/>
  <circle cx="80" cy="71" r="42" fill="#f3c49a"/>
  <path d="M39 72c2-34 24-53 51-50 22 3 34 20 36 49-18-11-33-23-45-39-9 17-24 31-42 40z" fill="#173653"/>
  <circle cx="65" cy="74" r="5" fill="#0d3b6e"/>
  <circle cx="96" cy="74" r="5" fill="#0d3b6e"/>
  <path d="M65 94c11 12 28 12 39 0" fill="none" stroke="#a34e4e" stroke-width="7" stroke-linecap="round"/>
  <path d="M34 151c6-31 25-50 46-50s40 19 46 50z" fill="url(#shirt)"/>
  <path d="M61 113h38l-10 25H71z" fill="#fff"/>
  <text x="80" y="147" text-anchor="middle" fill="#fff" font-family="Arial, sans-serif" font-size="12" font-weight="700">Van A.</text>
</svg>
