<svg xmlns="http://www.w3.org/2000/svg" viewBox="0 0 360 360" role="img" aria-label="Teacher profile photo">
  <defs>
    <linearGradient id="bg" x1="0" x2="1" y1="0" y2="1">
      <stop offset="0" stop-color="#eef6ff"/>
      <stop offset="1" stop-color="#e7f7ef"/>
    </linearGradient>
    <linearGradient id="top" x1="0" x2="1" y1="0" y2="1">
      <stop offset="0" stop-color="#1769e8"/>
      <stop offset="1" stop-color="#18a565"/>
    </linearGradient>
  </defs>
  <rect width="360" height="360" rx="42" fill="url(#bg)"/>
  <circle cx="180" cy="142" r="74" fill="#173650" opacity=".1"/>
  <circle cx="180" cy="138" r="60" fill="#efc3a0"/>
  <path d="M118 143c4-58 34-88 74-82 35 5 56 34 50 83-21-4-43-20-57-42-18 24-40 37-67 41z" fill="#173650"/>
  <circle cx="158" cy="146" r="6" fill="#153653"/>
  <circle cx="204" cy="146" r="6" fill="#153653"/>
  <path d="M161 176c13 10 27 10 40 0" fill="none" stroke="#9b4c45" stroke-width="7" stroke-linecap="round"/>
  <path d="M98 314c10-64 42-96 82-96s72 32 82 96" fill="url(#top)"/>
  <path d="M138 240h84l-18 48h-48z" fill="#ffffff" opacity=".92"/>
  <text x="180" y="332" text-anchor="middle" font-family="Arial, Helvetica, sans-serif" font-size="24" font-weight="800" fill="#173650">VLACE Teacher</text>
</svg>
